<?xml version='1.0' encoding='utf-8'?>
<svg xmlns="http://www.w3.org/2000/svg" viewBox="0 0 508.3 212.56"> <defs> <filter id="i"> <feGaussianBlur stdDeviation=".2502"/> </filter> <filter id="h"> <feGaussianBlur stdDeviation=".22849"/> </filter> <filter id="k"> <feGaussianBlur stdDeviation=".34781"/> </filter> <filter id="j"/> <filter id="g" x="-.03626" y="-.13285" width="1.0725" height="1.2657"> <feGaussianBlur stdDeviation="2.02876"/> </filter> <linearGradient id="e" x1="-3221.5" x2="-3235.5" y1="-131.14" y2="-188.64" gradientUnits="userSpaceOnUse"> <stop stop-color="#6f5530" offset="0"/> <stop stop-color="#6f5530" stop-opacity="0" offset="1"/> </linearGradient> <linearGradient id="f" x1="375.16" x2="409.94" y1="404.98" y2="344.82" gradientUnits="userSpaceOnUse"> <stop stop-color="#f0e0a4" offset="0"/> <stop stop-color="#2d1c0c" offset="1"/> </linearGradient> <radialGradient id="a" cx="-3334.5" cy="-114.76" r="92.103" gradientTransform="matrix(-2.7383 -.2965 .03932 -.36313 -8713.4 -587.14)" gradientUnits="userSpaceOnUse"> <stop stop-color="#ffd27f" offset="0"/> <stop stop-color="#ffd27f" stop-opacity="0" offset="1"/> </radialGradient> <radialGradient id="b" cx="-3483.5" cy="-228.57" r="95.589" gradientTransform="matrix(-.50039 .44175 -.20517 -.23241 -1577.4 1851.7)" gradientUnits="userSpaceOnUse"> <stop stop-color="#e9d394" offset="0"/> <stop stop-color="#e9d394" stop-opacity="0" offset="1"/> </radialGradient> <radialGradient id="c" cx="-3424.9" cy="-214.37" r="95.589" gradientTransform="matrix(-.29454 .36775 -.19539 -.15649 -882.03 1635.6)" gradientUnits="userSpaceOnUse"> <stop stop-color="#020200" offset="0"/> <stop stop-color="#e9d394" stop-opacity="0" offset="1"/> </radialGradient> <radialGradient id="d" cx="-3478.5" cy="-98.512" r="95.589" gradientTransform="matrix(-1.0933 -.03087 .00699 -.2475 -3582.2 317.01)" gradientUnits="userSpaceOnUse"> <stop stop-color="#f1e1a5" offset="0"/> <stop stop-color="#f1e1a5" stop-opacity="0" offset="1"/> </radialGradient> </defs> <g transform="translate(-140.14 -347.7)"> <path transform="matrix(3.5653 .01006 .41763 1.4156 6804.3 487.01)" d="m-1803 27.275a66.387 16.094 0 0 1 66.387 16.094 66.387 16.094 0 0 1-66.387 16.094 66.387 16.094 0 0 1-66.387-16.094 66.387 16.094 0 0 1 66.387-16.094" filter="url(#g)" opacity=".21739"/> <path d="m423.39 403.79c-96.764-22.501-256 20.436-218.61 31.739 20.693 6.2553 112.37 36.997 226.52-13.674 1.677 10.727 11.208 8.08 29.663 23.118-15.496 87.59-263.09 105.07-298.38 11.384-0.12737-0.36936 0.0425 0.14859-0.12737-0.22077-33.497-97.763 149.89-141.44 259.04-80.253l1.8765 27.907z" fill="#e9d394"/> <path transform="matrix(1.533 0 0 1.533 5537.5 800.04)" d="m-3498.7-264.59c-59.367 87.88 160.33 112.83 186.99 33.955" fill="none" filter="url(#k)" stroke="#6a5b44" stroke-width=".5"/> <path transform="matrix(1.533 0 0 1.533 5537.5 800.04)" d="m-3479.5-237.05c-18.462-13.599 83.733-28.542 113.87-25.286" fill="none" filter="url(#j)" stroke="#6a5b44" stroke-width=".5"/> <path d="m421.23 384.28c-132-90.793-327.05 29.27-216.44 51.251 21.206 4.2141 112.37 36.997 226.52-13.674 1.677 10.727 10.121-1.6761 28.581 13.362-61.929 30.013-259.47 57.326-292.88-17.022 2.819-100.47 270.56-72.06 254.51-42.313l-0.29718 8.3951z" fill="#423422"/> <path d="m421.23 384.28c-132-90.793-327.05 29.27-216.44 51.251 21.206 4.2141 112.37 36.997 226.52-13.674 1.677 10.727 10.121-1.6761 28.581 13.362-61.866 29.136-252.42 61.884-293.08-17.022 2.819-100.47 270.75-72.06 254.7-42.313l-0.29718 8.3951z" fill="url(#d)"/> <path d="m421.23 384.28c-132-90.793-327.05 29.27-216.44 51.251 21.206 4.2141 112.37 36.997 226.52-13.674 1.677 10.727 10.121-1.6761 28.581 13.362-77.213 29.26-256.48 54.442-293.08-17.022 2.819-100.47 270.75-72.06 254.7-42.313l-0.29718 8.3951z" fill="url(#c)"/> <path d="m421.23 384.28c-132-90.793-327.05 29.27-216.44 51.251 21.206 4.2141 112.37 36.997 226.52-13.674 1.677 10.727 10.121-1.6761 28.581 13.362-63.509 26.725-259.45 52.23-293.08-17.022 2.819-100.47 270.75-72.06 254.7-42.313l-0.29718 8.3951z" fill="url(#b)"/> <path d="m403.47 418.11c59.947-0.6122 135.3 36.611 172.08 60.17l50.589-6.8985c18.434-43.809-248.6-154.77-279.77-95.812l50.589 45.99 6.5126-3.4495z" fill="#e1cb89"/> <path d="m357.94 382.99c104.02-52.351 254.42 70.968 245.97 93.377l22.229-4.9821c18.434-43.809-249-158.58-280.18-99.62l11.977 11.225z" fill="url(#f)"/> <path d="m357.86 390.52c-12.248 39.268 203.34 104.64 243.38 84.757 2.0081-0.99812 24.777-10.451 24.964-8.7568 2.4709 22.708 2.5261 117.18-178.78 46.592-130.1-48.231-128.07-89.781-96.653-147.5" fill="#e1cb89"/> <path transform="matrix(1.533 0 0 1.533 5537.5 800.04)" d="m-3203.5-217.14c1.3084 61.089-62.447 52.293-117.88 29.981-52.052-20.95-92.69-41.124-62.896-95.037" fill="url(#e)" filter="url(#h)" stroke="#6a5b44" stroke-width=".6"/> <path d="m350.46 365.62c43.037 81.234 248.66 117.76 275.58 100.61-30.746 37.675-326.47 11.491-275.58-100.61z" fill="#2d1c0c"/> <path d="m350.46 365.48c43.037 81.233 248.66 117.89 275.58 100.74-30.746 37.675-326.47 11.355-275.58-100.74z" fill="url(#a)" opacity=".83913"/> <path transform="matrix(1.533 0 0 1.533 5537.5 800.04)" d="m-3203.9-217.67c-14.266 7.0741-65.098-0.2988-100.86-12.861-42.758-15.018-68.694-32.606-78.743-52.859 54.846-10.378 177.15 41.286 179.61 65.719z" fill="none" filter="url(#i)" stroke="#e1cb89" stroke-width=".7"/> </g> </svg>